<?xml version="1.0" encoding="utf-8"?>
<!-- Generator: Adobe Illustrator 24.3.0, SVG Export Plug-In . SVG Version: 6.00 Build 0)  -->
<svg version="1.1" id="Шар_1" xmlns="http://www.w3.org/2000/svg" xmlns:xlink="http://www.w3.org/1999/xlink" x="0px" y="0px"
	 viewBox="0 0 60 60" style="enable-background:new 0 0 60 60;" xml:space="preserve">
<style type="text/css">
	.st0{fill:#CCCCCC;}
</style>
<g>
	<path class="st0" d="M57.37,21.34L32.44,46.28c-1.37,1.37-3.62,1.37-4.99,0l0,0c-1.37-1.37-1.37-3.62,0-4.99l24.94-24.94
		c1.37-1.37,3.62-1.37,4.99,0l0,0C58.75,17.73,58.75,19.97,57.37,21.34z"/>
</g>
<g>
	<path class="st0" d="M27,46.28L2.06,21.34c-1.37-1.37-1.37-3.62,0-4.99l0,0c1.37-1.37,3.62-1.37,4.99,0l24.94,24.94
		c1.37,1.37,1.37,3.62,0,4.99l0,0C30.61,47.65,28.37,47.65,27,46.28z"/>
</g>
</svg>
